<svg width="32" height="32" viewBox="0 0 32 32" fill="none" xmlns="http://www.w3.org/2000/svg">
<g clip-path="url(#clip0_122_14)">
<mask id="mask0_122_14" style="mask-type:luminance" maskUnits="userSpaceOnUse" x="0" y="0" width="32" height="32">
<path d="M32 0H0V32H32V0Z" fill="white"/>
</mask>
<g mask="url(#mask0_122_14)">
<mask id="mask1_122_14" style="mask-type:luminance" maskUnits="userSpaceOnUse" x="0" y="0" width="32" height="32">
<path d="M32 0H0V32H32V0Z" fill="white"/>
</mask>
<g mask="url(#mask1_122_14)">
<path d="M0.0961914 15.312C0.0961914 8.11198 0.0961914 4.49598 2.3202 2.25598C4.5762 0.0319826 8.1762 0.0319824 15.3922 0.0319824H16.6722C23.8722 0.0319824 27.4882 0.0319826 29.7282 2.25598C31.9522 4.47998 31.9522 8.11198 31.9522 15.312V16.592C31.9522 23.792 31.9522 27.408 29.7282 29.648C27.5042 31.872 23.8722 31.872 16.6722 31.872H15.3922C8.19219 31.872 4.5762 31.872 2.3362 29.648C0.0961916 27.408 0.0961914 23.808 0.0961914 16.592V15.312Z" fill="#FF7700"/>
<path d="M16.0164 15.8719C17.5684 15.8719 18.9764 15.2319 19.9844 14.2239C20.9924 13.2159 21.6324 11.8079 21.6324 10.2559C21.6324 8.70389 20.9924 7.29589 19.9844 6.28789C18.9764 5.27989 17.5684 4.63989 16.0164 4.63989C14.4644 4.63989 13.0564 5.27989 12.0484 6.28789C11.0404 7.27989 10.4004 8.68789 10.4004 10.2559C10.4004 11.8239 11.0404 13.2159 12.0484 14.2239C13.0564 15.2319 14.4804 15.8719 16.0164 15.8719ZM14.2244 8.43189C14.6884 7.96789 15.3284 7.67989 16.0324 7.67989C16.7524 7.67989 17.3764 7.96789 17.8404 8.43189C18.3044 8.89589 18.5924 9.53589 18.5924 10.2399C18.5924 10.9599 18.3044 11.5839 17.8404 12.0479C17.3764 12.5119 16.7364 12.7999 16.0324 12.7999C15.3124 12.7999 14.6884 12.5119 14.2244 12.0479C13.7604 11.5839 13.4724 10.9439 13.4724 10.2399C13.4724 9.53589 13.7764 8.89589 14.2244 8.43189Z" fill="white"/>
<path d="M23.6001 18.1439L21.9521 15.8879C21.8561 15.7599 21.6641 15.7439 21.5521 15.8559C20.0001 17.1839 18.0801 18.0479 16.0161 18.0479C13.9521 18.0479 12.0481 17.1839 10.4801 15.8559C10.3681 15.7599 10.1761 15.7759 10.0801 15.8879L8.43208 18.1439C8.35208 18.2559 8.36808 18.3999 8.46408 18.4959C9.85608 19.6159 11.4721 20.3839 13.1521 20.7839L9.66408 26.9279C9.56808 27.1039 9.69608 27.3279 9.88808 27.3279H13.2961C13.4081 27.3279 13.5041 27.2639 13.5361 27.1519L15.9681 21.7119L18.4001 27.1519C18.4321 27.2479 18.5281 27.3279 18.6401 27.3279H22.0481C22.2561 27.3279 22.3681 27.1199 22.2721 26.9279L18.7841 20.7839C20.4641 20.3839 22.0801 19.6479 23.4721 18.4959C23.6801 18.3999 23.6961 18.2559 23.6001 18.1439Z" fill="white"/>
</g>
</g>
</g>
<defs>
<clipPath id="clip0_122_14">
<rect width="32" height="32" fill="white"/>
</clipPath>
</defs>
</svg>
