<svg width="100" height="100" viewBox="0 0 100 100" fill="none" xmlns="http://www.w3.org/2000/svg">
<ellipse cx="7.57597" cy="7.57597" rx="7.57597" ry="7.57597" fill="#60CDF6" fill-opacity="0.25"/>
<ellipse cx="7.57597" cy="28.7867" rx="7.57597" ry="7.57597" fill="#60CDF6" fill-opacity="0.25"/>
<ellipse cx="7.57597" cy="49.9998" rx="7.57597" ry="7.57597" fill="#60CDF6" fill-opacity="0.25"/>
<ellipse cx="7.57597" cy="71.2115" rx="7.57597" ry="7.57597" fill="#60CDF6" fill-opacity="0.25"/>
<ellipse cx="7.57597" cy="92.427" rx="7.57597" ry="7.57597" fill="#60CDF6" fill-opacity="0.25"/>
<ellipse cx="28.7918" cy="7.57597" rx="7.57597" ry="7.57597" fill="#60CDF6" fill-opacity="0.25"/>
<ellipse cx="28.7918" cy="28.7867" rx="7.57597" ry="7.57597" fill="#60CDF6" fill-opacity="0.25"/>
<ellipse cx="28.7918" cy="49.9998" rx="7.57597" ry="7.57597" fill="#60CDF6" fill-opacity="0.25"/>
<ellipse cx="28.7918" cy="71.2115" rx="7.57597" ry="7.57597" fill="#60CDF6" fill-opacity="0.25"/>
<ellipse cx="28.7918" cy="92.427" rx="7.57597" ry="7.57597" fill="#60CDF6" fill-opacity="0.25"/>
<ellipse cx="49.9969" cy="7.57597" rx="7.57597" ry="7.57597" fill="#60CDF6" fill-opacity="0.25"/>
<ellipse cx="49.9969" cy="28.7867" rx="7.57597" ry="7.57597" fill="#60CDF6" fill-opacity="0.25"/>
<ellipse cx="49.9969" cy="49.9998" rx="7.57597" ry="7.57597" fill="#60CDF6" fill-opacity="0.25"/>
<ellipse cx="49.9969" cy="71.2115" rx="7.57597" ry="7.57597" fill="#60CDF6" fill-opacity="0.25"/>
<ellipse cx="49.9969" cy="92.427" rx="7.57597" ry="7.57597" fill="#60CDF6" fill-opacity="0.25"/>
<ellipse cx="71.2185" cy="7.57597" rx="7.57597" ry="7.57597" fill="#60CDF6" fill-opacity="0.25"/>
<ellipse cx="71.2185" cy="28.7867" rx="7.57597" ry="7.57597" fill="#60CDF6" fill-opacity="0.25"/>
<ellipse cx="71.2185" cy="49.9998" rx="7.57597" ry="7.57597" fill="#60CDF6" fill-opacity="0.25"/>
<ellipse cx="71.2185" cy="71.2115" rx="7.57597" ry="7.57597" fill="#60CDF6" fill-opacity="0.25"/>
<ellipse cx="71.2185" cy="92.427" rx="7.57597" ry="7.57597" fill="#60CDF6" fill-opacity="0.25"/>
<ellipse cx="92.4236" cy="7.57597" rx="7.57597" ry="7.57597" fill="#60CDF6" fill-opacity="0.25"/>
<ellipse cx="92.4236" cy="28.7867" rx="7.57597" ry="7.57597" fill="#60CDF6" fill-opacity="0.25"/>
<ellipse cx="92.4236" cy="49.9998" rx="7.57597" ry="7.57597" fill="#60CDF6" fill-opacity="0.25"/>
<ellipse cx="92.4236" cy="71.2115" rx="7.57597" ry="7.57597" fill="#60CDF6" fill-opacity="0.25"/>
<ellipse cx="92.4236" cy="92.427" rx="7.57597" ry="7.57597" fill="#60CDF6" fill-opacity="0.25"/>
</svg>
